<svg id="visual" viewBox="0 0 900 600" width="900" height="600" xmlns="http://www.w3.org/2000/svg" xmlns:xlink="http://www.w3.org/1999/xlink" version="1.1"><path d="M654 600L673.7 583.3C693.3 566.7 732.7 533.3 754.5 500C776.3 466.7 780.7 433.3 776.7 400C772.7 366.7 760.3 333.3 739.7 300C719 266.7 690 233.3 695.8 200C701.7 166.7 742.3 133.3 763.7 100C785 66.7 787 33.3 788 16.7L789 0L900 0L900 16.7C900 33.3 900 66.7 900 100C900 133.3 900 166.7 900 200C900 233.3 900 266.7 900 300C900 333.3 900 366.7 900 400C900 433.3 900 466.7 900 500C900 533.3 900 566.7 900 583.3L900 600Z" fill="#edf8ea" stroke-linecap="round" stroke-linejoin="miter"></path></svg>